<?xml version="1.0" encoding="utf-8"?>
<!-- Generator: Adobe Illustrator 16.0.3, SVG Export Plug-In . SVG Version: 6.00 Build 0)  -->
<!DOCTYPE svg PUBLIC "-//W3C//DTD SVG 1.1//EN" "http://www.w3.org/Graphics/SVG/1.1/DTD/svg11.dtd">
<svg version="1.1" id="Capa_2" xmlns="http://www.w3.org/2000/svg" xmlns:xlink="http://www.w3.org/1999/xlink" x="0px" y="0px"
	 width="300px" height="300px" viewBox="0 0 300 300" enable-background="new 0 0 300 300" xml:space="preserve">
<g>
	<path fill="#322616" d="M212.734,133.299c0.086,0.001,0.174,0.004,0.261,0.006c0.986-0.142,1.99-0.224,2.985-0.205
		c0.744,0.014,1.184-0.159,1.383-0.729c0.495-1.346,1.342-2.63,1.111-4.104c-0.34-0.585,0.111-1.208-0.135-1.799l0.013,0.026
		c-0.389-0.596,0.084-1.246-0.183-1.849l0.018-0.032c-0.073-0.851-0.392-1.677-0.373-2.536l0.009,0.025
		c-0.225-0.587-0.287-1.2-0.418-1.801l0.015,0.027c-0.353-1.092-0.535-2.217-0.935-3.301c-0.396-0.302,0.066-0.828-0.438-1.104
		c-0.528-0.36-0.234-0.916-0.48-1.342c-0.07-0.145-0.143-0.292-0.214-0.437c-0.255-0.339-0.248-0.757-0.496-1.098
		c-0.433-0.244,0.072-0.632-0.209-0.9c-0.273-0.282-0.347-0.625-0.451-0.959c0.065-0.057,0.062-0.107-0.016-0.154
		c-0.274-0.244-0.276-0.59-0.486-0.857c-0.24-0.987-1.026-1.861-0.916-2.919c-0.104-0.516-0.139-1.029,0.136-1.524
		c0.349-0.976,0.866-1.891,1.521-2.758c0.62-0.66,1.426-1.158,2.217-1.671c2.428-1.463,5.298-2.143,8.108-2.859
		c3.67-0.933,7.44-1.588,11.259-1.987c2.392-0.25,4.799-0.393,7.198-0.585c0.647-0.209,1.331,0.1,1.979-0.095
		c1.229,0.039,2.455,0.078,3.683,0.117c0.546-0.122,1.081-0.092,1.61,0.063c0.091,0.002,0.183,0.006,0.274,0.009
		c0.634-0.104,1.258-0.071,1.876,0.077c0.319,0.031,0.639,0.063,0.957,0.095c0.905,0.265,1.889,0.028,2.794,0.284
		c0.576,0.062,1.11,0.513,1.733,0.119c0.459,0.214,1.027,0.021,1.48,0.258c0.781,0.097,1.517,0.396,2.332,0.346
		c0.904,0.199,1.827,0.341,2.732,0.538l-0.007-0.002c0.405,0.139,0.85,0.363,0.883-0.277c-0.249-0.415-0.498-0.833-0.746-1.251
		c-0.449-0.476-0.566-1.093-1.003-1.577c-0.313-0.166-0.136-0.447-0.236-0.663c-0.256-0.276-0.314-0.614-0.453-0.927
		c0.216-0.289-0.416-0.476-0.107-0.814c0.619,0.218,1.301,0.28,1.981,0.339c0.901,0.134,1.815,0.238,2.649,0.579
		c0.858,0.23,1.726,0.432,2.636,0.475c0.387,0.278,1.043-0.105,1.353,0.361c1.477,0.402,2.953,0.805,4.425,1.207
		c0.858,0.193,1.749,0.327,2.463,0.811c0.509,0.158,0.952,0.469,1.54,0.448c1.109,0.239,1.951,0.86,2.759,1.44
		c0.859,0.618,0.534,1.42,0.017,2.139c-1.04,0.905-2.233,1.709-2.879,2.873c-0.212,0.298-0.324,0.642-0.635,0.893l0.018-0.021
		c-0.118,0.609-0.313,1.202-0.611,1.769l0.003-0.008c-0.381,0.917-0.01,1.959-0.717,2.823l0.002-0.002
		c-0.247,0.579-0.71,0.949-1.491,1.012c-0.804-0.084-1.579,0.074-2.364,0.167c-0.556,0.167-1.147-0.09-1.704,0.092
		c-0.218-0.008-0.435-0.016-0.652-0.023c-0.663-0.173-1.338-0.202-2.02-0.086c-1.118-0.048-2.235-0.097-3.352-0.145
		c-0.796-0.279-1.689-0.036-2.485-0.311l-0.078-0.059l-0.094,0.036c-0.527-0.252-1.182,0.018-1.696-0.278
		c-0.121-0.103-0.256-0.106-0.402-0.036c-0.546-0.225-1.195-0.002-1.735-0.261c-0.126-0.014-0.254-0.029-0.382-0.043
		c-0.642-0.248-1.394,0-2.023-0.292c-2.507-0.254-5.02-0.268-7.532-0.117c-0.195,0.01-0.379,0.154-0.569,0.236
		c-0.663,0.058-1.321,0.127-1.96,0.295l0.029-0.008c-0.268,0.207-0.708,0.178-0.933,0.447c-0.521,0.221-0.929,0.569-1.414,0.833
		c-0.974,0.182-0.968-0.338-0.828-0.83c0.183-0.649,0.827-1.008,1.494-1.334c1.626-0.79,3.459-0.973,5.28-1.163
		c3.832-0.402,7.605,0.069,11.362,0.58c3.594,0.488,7.212,0.7,10.845,0.757c2.141,0.033,2.685-0.312,3.321-1.949
		c0.576-1.479,0.953-3.015,2.277-4.424c-6.724-0.026-12.729-1.945-18.976-2.855c-5.749-0.836-11.531-1.248-17.391-1.002
		c-6.447,0.271-12.729,1.191-18.869,2.775c-2.78,0.716-5.499,1.502-7.673,3.234c-2.232,1.781-1.746,3.847-0.008,5.546
		c1.027,1.001,2.457,1.56,3.934,2.031c3.655,1.166,7.479,1.781,11.33,2.305c5.173,0.703,10.404,1.124,15.497,2.202
		c2.184,0.462,4.244,1.171,6.119,2.203c2.653,1.459,3.142,2.972,1.895,5.345c-1.211,2.307-2.389,4.627-3.261,7.038
		c-0.026,0.113-0.074,0.222-0.135,0.325c-0.526,0.313-0.513,0.861-0.826,1.266l0.015-0.021c-0.163,0.522-0.231,1.07-0.589,1.542
		c-0.086,0.031-0.104,0.08-0.057,0.144c-0.715,2.005-1.427,4.014-2.088,6.029c-0.788,2.394-1.43,4.816-1.884,7.278
		c-0.583,3.144-0.673,6.304-0.849,9.466c-0.007,0.112,0.038,0.212,0.094,0.312c-0.045,0.302-0.038,0.593,0.23,0.839
		c0.313,0.422-0.128,0.909,0.179,1.33l-0.003-0.007c0.153,0.368,0.254,0.735-0.129,1.062c-0.175,0.208-0.352,0.412-0.526,0.617
		c-0.283,0.375-0.616,0.708-1.182,0.814l0.024-0.013c-0.25,0.338-0.732,0.294-1.099,0.439c-1.22,0.626-2.693,0.826-3.872,1.521
		c-0.282,0.353-0.766,0.342-1.192,0.433c-1.27,0.433-2.575,0.81-3.782,1.334c-0.371,0.16-0.737,0.102-1.061,0.253
		c-0.348,0.19-0.758,0.253-1.149,0.355c-0.752,0.102-1.489,0.249-2.146,0.584c-0.673,0.192-1.375,0.313-2.038,0.531
		c-2.566,0.429-5.142,0.825-7.689,1.312c-0.502,0.095-1.059-0.108-1.497,0.209c-0.456,0.43-1.119-0.069-1.604,0.231
		c-1.372,0.089-2.77,0.038-4.073,0.494c-0.641,0.221-1.326-0.106-1.968,0.102c-0.869,0.137-1.779-0.318-2.628,0.119
		c-0.539,0.251-1.138-0.066-1.684,0.12l0.034-0.009c-1.708,0.188-3.438,0.09-5.147,0.255c-0.439-0.015-0.88-0.031-1.316-0.045
		c-1.888-0.026-3.775,0.317-5.661-0.007c-0.092-0.004-0.184-0.008-0.274-0.01c-1.196,0.191-2.397-0.178-3.595,0.018
		c-0.959-0.024-1.916-0.051-2.873-0.075c-0.843,0.226-1.604-0.509-2.458-0.139c-0.651-0.129-1.309-0.213-1.979-0.099
		c-1.354-0.314-2.797-0.018-4.145-0.387l0.015,0.005c-0.486-0.208-0.99-0.155-1.499-0.078l-0.007-0.005
		c-0.456-0.194-1.006-0.019-1.459-0.236c-0.33-0.025-0.658-0.053-0.989-0.079c-0.709-0.269-1.518-0.004-2.224-0.281
		c-0.159-0.015-0.318-0.032-0.477-0.048c-0.424-0.234-0.965-0.019-1.392-0.241c-0.775-0.145-1.603-0.063-2.342-0.356
		c-0.424-0.235-0.972-0.011-1.396-0.248l-0.099-0.056l-0.118,0.021c-0.688-0.3-1.507,0.019-2.191-0.307
		c-0.149-0.012-0.302-0.022-0.452-0.034c-1.102-0.154-2.202-0.314-3.283-0.547c-0.239-0.022-0.479-0.043-0.719-0.064
		c-0.525-0.241-1.17,0.013-1.688-0.265l-0.076-0.059l-0.101,0.025c-0.529-0.236-1.165-0.003-1.69-0.255
		c-0.679-0.232-1.461-0.019-2.123-0.324c-0.396-0.267-0.937-0.023-1.344-0.249c-0.164-0.02-0.328-0.038-0.493-0.057
		c-0.767-0.328-1.683,0.048-2.437-0.341l0.025,0.007c-0.781-0.285-1.671,0.016-2.447-0.301l-0.056-0.058l-0.086,0.026
		c-1.082-0.316-2.275,0.031-3.344-0.366l-0.064-0.039l-0.063,0.04c-1.087-0.307-2.278,0.017-3.354-0.363
		c-1.681-0.069-3.362-0.139-5.043-0.207c-0.592-0.195-1.2-0.168-1.813-0.091c-0.584-0.009-1.167-0.018-1.75-0.025
		c-0.411,0.252-0.733-0.257-1.134-0.089c-0.697-0.047-1.391-0.197-2.094-0.047c-2.057,0.103-4.099-0.141-6.15-0.173
		c-0.311-0.004-0.624-0.074-0.924,0.045c-0.426,0.021-0.848-0.174-1.277-0.017c-1.288,0.194-2.58-0.175-3.868,0.011l-0.089-0.041
		l-0.085,0.048c-0.99,0.277-2.012-0.153-3.003,0.088l0.018-0.006c-0.517,0.119-0.261,0.675-0.711,0.832
		c-0.236,0.185-0.189,0.425-0.194,0.654c-0.349,0.31,0.055,0.795-0.382,1.088l0.016-0.024c-0.204,1.254-0.792,2.476-0.513,3.772
		l-0.011-0.023c0.238,0.594,0.257,1.226,0.438,1.829c0.138,0.524,0.213,1.067,0.656,1.505c0.433,0.304,0.697,0.683,0.781,1.142
		l-0.012-0.02c0.395,0.32,0.65,0.7,0.771,1.14c0,0.23,0.185,0.352,0.404,0.453c0.395,0.255,0.696,0.562,0.83,0.963
		c0.135,0.206,0.271,0.413,0.406,0.62c0.512,0.268,0.708,0.688,0.845,1.14c-0.099,0.31,0.202,0.464,0.395,0.659
		c0.373,0.575,0.297,1.136-0.083,1.688c-1.005,1.879-3.043,2.749-5.219,3.449c-1.365,0.44-2.781,0.777-4.174,1.157
		c-0.544,0.2-1.15,0.222-1.707,0.384c-0.465-0.094-0.899-0.063-1.281,0.198c-0.682,0.066-1.358,0.16-2.02,0.316l-0.091-0.031
		l-0.068,0.056c-0.446,0.209-0.954-0.058-1.403,0.122l0.026-0.013c-0.407,0.321-0.959-0.048-1.384,0.189
		c-0.912,0.028-1.833,0.011-2.677,0.363c-0.61,0.202-1.274-0.151-1.878,0.116l-0.011,0.004c-0.476,0.19-1.003-0.045-1.481,0.118
		c-0.786-0.078-1.564-0.1-2.317,0.15c-0.665,0.217-1.366-0.08-2.033,0.098c-0.225-0.069-0.448-0.127-0.67,0.001
		c-0.646,0.237-1.339-0.094-1.987,0.108c-1.592-0.146-3.177,0.059-4.766,0.051c-0.846,0.216-1.718-0.126-2.565,0.075
		c-0.136,0.009-0.273,0.021-0.41,0.033c-1.033,0.17-2.073-0.149-3.106,0.027c-0.314,0.006-0.629,0.013-0.942,0.018
		c-0.703,0.235-1.511-0.249-2.181,0.211c-0.828,0.341-1.636-0.311-2.464-0.029l0.032-0.012c-0.5,0.337-1.126-0.082-1.639,0.181
		c-0.566-0.117-1.109-0.102-1.606,0.183c-0.462,0.174-0.973-0.065-1.435,0.111c-3.119,0.525-6.013,1.453-8.502,3.111
		c-0.163,0.325-0.456,0.536-0.866,0.645l0.013-0.011c-0.283,0.582-0.938,0.873-1.47,1.261c-0.277,0.213-0.521,0.439-0.565,0.764
		c-0.161,0.331-0.368,0.642-0.604,0.938l0.012-0.021c-0.212,0.384-0.172,0.784-0.11,1.185l-0.01-0.008
		c1.292,0.498,2.581,0.887,4.084,0.622c0.798-0.14,1.657-0.083,2.484-0.163c1.741-0.317,3.338-0.929,4.911-1.588
		c0.417-0.12,0.714-0.388,1.077-0.573c0.779-0.652,1.725-1.197,2.062-2.131c0.409-0.679,0.025-1.451,0.392-2.134
		c0.1-0.066,0.201-0.137,0.301-0.205c0.859-0.01,1.691,0.052,2.341,0.588l-0.008-0.005c0.683,0.059,1.029,0.458,1.351,0.879
		l0.001,0.004c0.497,0.343,0.998,0.68,1.245,1.193c0.059,0.569,0.417,1.041,0.764,1.515c0.307,0.21,0.445,0.488,0.513,0.801
		c0.214,0.916,0.289,1.83-0.215,2.71c-0.568,1.129-2.038,1.574-2.882,2.492c-0.22,0.387-0.687,0.478-1.114,0.617
		c-0.798,0.235-1.583,0.494-2.241,0.947c-0.35,0.204-0.786,0.251-1.156,0.416c-1.142,0.07-2.142,0.523-3.218,0.773
		c-0.562,0.192-1.164-0.077-1.726,0.101c-0.509,0.061-1.02,0.124-1.529,0.185c-0.833,0.231-1.695-0.121-2.529,0.082
		c-0.147,0.004-0.295,0.005-0.442,0.007c-0.75,0.233-1.537-0.106-2.29,0.097l-0.058-0.045l-0.071,0.031
		c-0.672,0.109-1.255-0.166-1.876-0.282l0.013,0.003c-0.399-0.26-0.952,0-1.351-0.261c-0.383-0.199-0.953,0.119-1.259-0.295
		c-0.386-0.136-0.822-0.199-1.103-0.491l0.019,0.008c-0.457-0.138-0.967-0.168-1.35-0.45c-0.178-0.09-0.356-0.179-0.534-0.268
		c-0.4-0.16-0.807-0.311-1.027-0.655c-0.19-0.253-0.66,0.003-0.824-0.298c-0.494-0.384-1.002-0.753-1.511-1.125
		c-0.438-0.394-0.876-0.786-1.314-1.181c-0.899-0.78-1.475-1.688-1.639-2.756c0.061-0.061,0.052-0.113-0.028-0.158
		c-0.125-0.954-0.076-1.897,0.193-2.832l0.076-0.057l-0.035-0.079c0.307-0.429-0.026-0.962,0.343-1.38
		c0.997-3.065,3.668-5.059,6.672-6.84c0.301-0.308,0.706-0.505,1.127-0.681c0.64-0.348,1.278-0.695,1.917-1.043
		c0.55-0.06,0.949-0.362,1.407-0.57c0.734-0.341,1.468-0.68,2.202-1.021c0.421-0.075,0.801-0.243,1.212-0.338
		c0.7-0.276,1.4-0.55,2.1-0.825c0.389-0.164,0.808-0.256,1.229-0.342c0.143-0.082,0.285-0.165,0.427-0.245
		c0.415-0.086,0.798-0.239,1.205-0.344c0.245-0.151,0.491-0.305,0.736-0.454c0.592-0.206,0.914-0.631,1.359-1.065
		c-1.486-0.068-2.866-0.324-4.275-0.147l0.019-0.003c-0.459,0.248-0.996-0.029-1.467,0.142l-0.088-0.027l-0.067,0.054
		c-0.433,0.233-0.954-0.078-1.388,0.15c-1.24-0.136-2.338,0.361-3.511,0.522c-0.657,0.121-1.315,0.232-1.979,0.322
		c-1.558,0.092-3.04,0.494-4.564,0.728c-0.89,0.372-1.871,0.122-2.794,0.266c-1.052-0.017-2.105-0.035-3.158-0.052
		c-0.691,0.228-1.276-0.354-1.962-0.167c-0.114-0.007-0.227-0.012-0.34-0.018c-0.624-0.253-1.359,0.015-1.974-0.278
		c-0.372-0.101-0.852,0.103-1.128-0.265c-0.343-0.296-0.918,0.029-1.246-0.307l0.022,0.013c-0.375-0.135-0.794-0.207-1.076-0.479
		l0.017,0.005c-0.703-0.211-1.332-0.512-1.833-0.969l0.018,0.012c-0.373-0.211-0.827-0.336-1.073-0.677
		c-0.156-0.154-0.312-0.305-0.468-0.457c-0.261-0.43-0.244-0.808,0.311-1.084c0.152-0.641,0.231-1.299,0.675-1.871
		c0.302-0.426,0.012-0.939,0.314-1.364c0.025-0.178,0.051-0.356,0.075-0.535c0.25-1.061,0.341-2.131,0.206-3.21
		c-0.037-0.716-0.072-1.431-0.108-2.146c-0.338-0.456,0.049-0.976-0.184-1.44c-0.44-1.198,0.468-2.091,1.241-2.89
		c1.182-1.218,2.75-2.155,4.248-3.127c0.425-0.13,0.725-0.417,1.126-0.576c1.769-1.014,3.538-2.025,5.306-3.037
		c0.39-0.27,0.947-0.304,1.306-0.616c0.354-0.771,0.709-1.543,1.063-2.316c0.221-0.526,0.262-1.06,0.102-1.603
		c0.091-1.754-0.962-3.255-1.626-4.844c-0.162-0.342-0.793-0.507-0.537-1.01c0.306-0.6,1.03-0.256,1.505-0.463l-0.016,0.002
		c2.792-0.727,5.534-0.514,8.261,0.259c3.241,0.917,3.842,3.556,2.023,5.597c-1.603,2.764-3.332,5.485-4.446,8.417
		c-0.064,0.171-0.066,0.356-0.098,0.535c-0.297,0.34,0.041,0.809-0.351,1.132l0.011-0.02c-0.293,0.335,0.008,0.779-0.314,1.109
		c-0.029,0.583-0.453,1.145-0.126,1.742c0.201,0.374,0.165,0.736-0.066,1.091c-0.148,1.894,0.156,2.216,2.316,1.592
		c2.778-0.803,5.618-1.443,8.37-2.323c2.959-0.948,6.02-1.752,9.198-2.149c0.515-0.218,1.1,0.122,1.609-0.134
		c0.138-0.131,0.155-0.273,0.074-0.432c-0.338-1.157-0.015-2.334-0.123-3.509c-0.115-1.246-0.377-2.47-0.517-3.705
		c-0.13-0.67-0.26-1.339-0.39-2.011c-0.183-0.667-0.274-1.345-0.396-2.02l0.008,0.022c-0.295-0.643-0.35-1.344-0.721-1.969
		c-0.154-0.449-0.308-0.897-0.461-1.348c-0.258-0.25-0.27-0.59-0.475-0.861l-0.072-0.069l-0.112,0.005
		c-0.291-0.114-0.443-0.315-0.545-0.551c-0.111-0.382-0.433-0.648-0.77-0.906c-0.201-0.189-0.258-0.421-0.3-0.658
		c-0.004-0.482-0.556-0.516-0.903-0.72c-0.486-0.827,0.195-1.267,0.893-1.646c0.582-0.318,1.251-0.519,1.917-0.707l-0.017,0.006
		c0.388-0.434,0.987-0.518,1.574-0.622c0.853-0.333,1.707-0.664,2.56-0.994c0.388-0.125,0.88-0.016,1.173-0.349
		c0.797-0.195,1.595-0.39,2.392-0.585c0.228-0.284,0.544-0.487,0.961-0.507c1.585-0.076,3.026-0.733,4.626-0.743
		c0.384,0.069,0.692-0.066,0.987-0.239c1.336-0.472,2.731-0.761,4.186-0.857c0.88-0.182,1.76-0.365,2.641-0.548
		c0.456-0.256,0.998,0.042,1.463-0.152c0.603-0.125,1.205-0.249,1.808-0.373c0.926-0.127,1.865-0.176,2.79-0.308
		c0.474,0.125,0.876-0.065,1.292-0.195c0.549-0.207,1.148,0.088,1.697-0.112c1.391-0.357,2.89-0.101,4.274-0.496
		c0.631-0.234,1.308,0.095,1.942-0.103l-0.027,0.012c0.401-0.324,0.954,0.054,1.372-0.195c0.169-0.001,0.339-0.001,0.51-0.002
		c0.864-0.107,1.727-0.215,2.596-0.288c0.306,0.124,0.614,0.161,0.926,0.016c1.104-0.154,2.22-0.207,3.335-0.271
		c0.075,0.051,0.139,0.043,0.19-0.024c0.724-0.229,1.488,0.132,2.211-0.101c0.723,0.135,1.418-0.027,2.117-0.134
		c1.382-0.131,2.771-0.176,4.158-0.24c0.327,0.033,0.65,0.174,0.982,0.016c0.748-0.237,1.532,0.102,2.283-0.095
		c0.139,0.002,0.277,0.007,0.417,0.009c0.427-0.266,0.958,0.059,1.394-0.16l-0.021,0.008c2.063,0.013,4.129-0.256,6.191,0.034
		c0.089-0.003,0.179-0.003,0.268-0.004c0.627-0.191,1.275-0.174,1.926-0.123c0.086,0.034,0.167,0.027,0.243-0.021
		c1.532-0.111,3.062,0.11,4.593,0.024c0.893,0.044,1.778,0.262,2.681,0.082c1.559-0.145,3.105,0.095,4.659,0.098
		c0.528,0,1.062,0.147,1.585-0.028c0.698,0.099,1.397,0.218,2.108,0.064c2.155-0.032,4.31-0.032,6.438,0.321
		c0.18,0.189,0.364,0.104,0.549,0.005c1.936,0.314,3.953,0.054,5.865,0.538c0.334,0.328,0.654,0.047,0.977-0.017
		c2.431,0.204,4.833,0.61,7.289,0.628c0.476,0.004,0.99-0.079,1.43,0.171c0.299,0.156,0.61,0.146,0.928,0.048
		c1.613,0.271,3.263,0.173,4.888,0.304c0.479,0.037,0.98-0.052,1.43,0.157c0.939,0.097,1.869,0.284,2.825,0.148
		c3.564,0.312,7.14,0.445,10.724,0.467c0.411,0.094,0.817,0.258,1.243,0.034c0.36-0.056,0.717-0.043,1.062,0.068
		c0.191,0.182,0.371,0.06,0.555-0.015c1.576-0.212,3.148,0.202,4.724,0.015l0.027,0.007c0.524,0.078,1.049,0.185,1.588,0.067
		l0.062,0.036l0.061-0.036c0.937-0.287,1.905,0.114,2.846-0.091l0.051,0.038l0.063-0.026c0.388-0.05,0.755,0.201,1.148,0.053
		l-0.032,0.008C209.687,133.109,211.214,133.384,212.734,133.299z"/>
	<path fill="#402323" d="M251.172,130.601c0.025-0.111,0.05-0.222,0.076-0.334c1.809,0.052,2.982,1.03,4.183,1.932
		c0.98,0.742,1.795,1.613,2.829,2.326c2.972,2.054,6.533,3.029,10.252,3.605c6.683,1.037,13.37,0.698,20.066-0.114
		c3.205-0.39,4.548-2.195,5.745-4.24c0.295-0.506,0.016-0.687-0.612-0.546c-6.786,1.516-13.243,0.405-19.549-1.672
		c-4.189-1.382-7.444-3.604-9.124-7.125c-0.425-0.892-0.692-1.808-0.666-2.766c0.108-3.721-2.116-6.327-5.885-8.246
		c-3.558-1.812-7.41-2.904-11.564-3.332c-0.313-0.031-0.621-0.077-0.887-0.23c-0.516-0.914,0.158-0.924,0.966-0.834
		c3.643,0.054,7.11,0.659,10.31,2.126l-0.017-0.008c0.553,0.216,1.165,0.348,1.575,0.758c0.056,0.205,0.244,0.224,0.456,0.215
		c0.396,0.145,0.904,0.147,1.091,0.563c0.269,0.256,0.478,0.57,0.949,0.625c1.054,0.418,1.579,1.278,2.403,1.891
		c1.11,1.494,1.988,3.055,2.149,4.827c0.296,0.504-0.14,1.053,0.146,1.56l-0.004-0.018c0.173,0.761,0.179,1.551,0.628,2.26
		l-0.018-0.017c0.44,0.304,0.53,0.761,0.783,1.147c0.077,0.499,0.204,0.968,0.935,1.102c0.371,0.242,0.6,0.573,0.84,0.896
		l-0.01-0.005c0.38,0.208,0.712,0.461,1.028,0.727l-0.021-0.01c0.43,0.155,0.704,0.469,1.07,0.688l-0.012-0.005
		c0.322,0.352,0.982,0.221,1.289,0.593c0.086,0.043,0.171,0.088,0.256,0.132c0.361,0.172,0.863,0.17,1.05,0.558
		c0.106,0.178,0.297,0.188,0.503,0.17c1.204,0.256,2.322,0.71,3.506,1.016c1.262,0.427,2.547,0.783,3.931,0.83
		c0.424,0.235,0.967,0.015,1.39,0.244c0.584,0.088,1.162,0.236,1.766,0.119c0.61,0.162,1.23,0.182,1.859,0.079
		c0.453-0.646-0.522-0.874-0.608-1.362c-0.31-0.259-0.71-0.443-0.949-0.761l0.016,0.015c-0.474-0.091-0.692-0.475-1.104-0.64
		c-0.176-0.084-0.349-0.17-0.523-0.254c-0.238-0.585,0.31-0.759,0.781-0.937c0.743-0.278,1.532-0.366,2.355-0.351
		c2.363,0.044,4.692,0.292,6.98,0.767c0.734,0.153,1.459,0.363,1.976,0.862c1.052,0.678,0.951,1.624,0.906,2.557
		c-0.341,0.316,0.134,0.851-0.454,1.101c-0.479,1.187-1.224,2.27-2.009,3.335c-0.36,0.545-0.622,1.144-1.232,1.559
		c-1.608,0.853-3.284,1.557-5.236,1.753c-1.337,0.134-2.66,0.346-3.99,0.524c-0.479,0.166-0.999-0.048-1.479,0.106l-0.07-0.041
		l-0.07,0.044c-0.624,0.281-1.313-0.092-1.942,0.127l0.028-0.007c-1.094,0.314-2.221-0.145-3.318,0.086
		c-1.197-0.05-2.393-0.1-3.588-0.151c-1.624-0.167-3.251-0.312-4.87-0.503c-0.576-0.068-1.157-0.06-1.629-0.389
		c-0.144-0.022-0.285-0.044-0.429-0.066c-0.45-0.196-0.989-0.021-1.438-0.226c-0.854-0.272-1.708-0.544-2.562-0.814
		c-0.398-0.122-0.834-0.192-1.115-0.49l0.021,0.008c-0.38-0.12-0.764-0.231-1.088-0.438c-0.965-0.376-1.814-0.889-2.627-1.447
		c-0.56-0.345-0.943-0.836-1.521-1.165c-0.425-0.38-0.85-0.759-1.272-1.14c-0.342-0.581-1.019-0.915-1.53-1.372
		c-0.095-0.078-0.188-0.157-0.283-0.236c-0.453-0.266-0.741-0.684-1.259-0.892c-0.102-0.088-0.204-0.175-0.306-0.264
		C251.211,130.9,251.141,130.771,251.172,130.601z"/>
	
		<linearGradient id="SVGID_1_" gradientUnits="userSpaceOnUse" x1="67.7427" y1="149.603" x2="250.457" y2="149.603" gradientTransform="matrix(0.9986 0.0527 -0.0527 0.9986 8.1498 -8.3594)">
		<stop  offset="0" style="stop-color:#B7660B"/>
		<stop  offset="0.0163" style="stop-color:#B86A0D"/>
		<stop  offset="0.1425" style="stop-color:#BE8517"/>
		<stop  offset="0.2712" style="stop-color:#C2981F"/>
		<stop  offset="0.4029" style="stop-color:#C4A323"/>
		<stop  offset="0.5419" style="stop-color:#C5A725"/>
		<stop  offset="0.6289" style="stop-color:#C5A223"/>
		<stop  offset="0.7317" style="stop-color:#C4941F"/>
		<stop  offset="0.8424" style="stop-color:#C37C17"/>
		<stop  offset="0.9581" style="stop-color:#C15B0C"/>
		<stop  offset="0.9704" style="stop-color:#C1570B"/>
	</linearGradient>
	<path fill="url(#SVGID_1_)" d="M113.618,176.4c-7.532-1.414-14.949-2.634-22.536-3.154c-2.802-0.189-5.59,0.043-8.394-0.226
		c-3.12-0.3-6.208-0.638-9.16-1.503c-2.545-0.744-3.042-1.722-2.27-3.861c1.945-5.386,2.006-10.835,0.971-16.347
		c-0.492-2.618-1.038-5.206-2.258-7.683c-0.418-0.849-0.914-1.669-1.551-2.394c-0.611-0.697-0.218-0.927,0.474-1.154
		c3.415-1.117,6.814-2.276,10.423-2.934c3.782-0.689,7.488-1.623,11.308-2.198c4.475-0.676,8.983-1.133,13.499-1.552
		c7.24-0.671,14.506-1.08,21.784-1.279c3.917-0.106,7.856-0.03,11.758-0.194c6.068-0.255,12.054,0.306,18.054,0.687
		c5.488,0.35,10.981,0.707,16.466,1.124c4.233,0.321,8.484,0.56,12.724,0.85c6.96,0.477,13.931,0.801,20.903,0.89
		c4.804,0.061,9.663,0.49,14.428-0.288c5.815-0.948,11.672-1.764,17.258-3.509c3.801-1.186,7.493-2.491,10.741-4.507
		c0.849-0.527,1.617-1.142,2.399-1.734c0.326-0.244,0.61-0.516,1.276-0.49c-1.376,2.531-2.256,5.143-3.308,7.709
		c-2.922,7.122-5.104,14.362-5.216,21.922c-0.021,1.282,0.181,2.55,0.592,3.778c0.184,0.546,0.023,0.86-0.446,1.208
		c-1.085,0.804-2.434,1.216-3.733,1.688c-4.35,1.583-8.768,3.035-13.393,3.992c-3.804,0.786-7.676,1.299-11.563,1.749
		c-4.837,0.559-9.711,0.732-14.571,0.865c-3.902,0.103-7.828,0.144-11.746-0.136c-2.8-0.2-5.617-0.193-8.424-0.428
		c-5.542-0.463-11.004-1.306-16.487-2.069c-6.183-0.863-12.329-1.884-18.597-2.368c-4.263-0.331-8.485-1.03-12.774-1.215
		c-5.833-0.25-11.661-0.307-17.51-0.121c-5.111,0.159-10.172,0.559-15.209,1.171c-5.501,0.667-10.969,1.528-16.347,2.693
		c-2.665,0.578-5.216,1.465-7.654,2.512c-0.844,0.364-1.536,0.99-1.931,1.754c-0.11,0.213-0.104,0.446,0.074,0.622
		c0.17,0.171,0.423,0.127,0.586-0.015c2.227-1.925,5.317-2.435,8.217-3.165c4.636-1.163,9.441-1.747,14.208-2.472
		c3.422-0.522,6.874-0.79,10.315-1.151c1.356-0.142,2.729-0.178,4.091-0.288c0.718-0.059,0.877,0.162,0.646,0.684
		c-0.485,1.094-0.813,2.217-1.081,3.363c-0.699,2.993,0.282,5.641,2.307,8.101C113.238,175.668,113.432,176.015,113.618,176.4z"/>
	
		<linearGradient id="SVGID_2_" gradientUnits="userSpaceOnUse" x1="211.6934" y1="112.9507" x2="293.9463" y2="112.9507" gradientTransform="matrix(0.9986 0.0527 -0.0527 0.9986 8.1498 -8.3594)">
		<stop  offset="0" style="stop-color:#843202"/>
		<stop  offset="1" style="stop-color:#000000"/>
	</linearGradient>
	<path fill="url(#SVGID_2_)" d="M246.16,109.748c5.258,0.333,10.018,1.79,14.186,4.375c2.794,1.731,4.411,4.043,4.362,7.016
		c-0.061,3.741,2.276,6.5,5.91,8.499c5.412,2.977,11.587,3.986,18.026,3.979c1.887-0.001,3.798-0.231,5.581-0.854
		c0.229-0.08,0.525-0.272,0.711-0.071c0.13,0.141,0.127,0.438,0.039,0.62c-0.683,1.427-1.575,2.832-2.841,3.9
		c-1.04,0.877-2.807,1.068-4.345,1.233c-5.481,0.593-10.988,0.952-16.506,0.366c-5.713-0.605-11.151-1.845-15.131-5.513
		c-1.419-1.308-2.967-2.341-4.905-3.031c-0.071-0.163-0.265-0.375-0.196-0.479c1.468-2.323,2.227-4.876,3.637-7.221
		c1.218-2.024-0.163-3.739-2.96-4.972c-3.398-1.498-7.107-2.137-10.92-2.63c-5.719-0.74-11.503-1.25-17.101-2.492
		c-2.778-0.618-5.664-1.222-7.805-2.978c-1.953-1.601-2.805-4.319-0.068-6.324c2.403-1.763,5.337-2.537,8.291-3.313
		c5.023-1.318,10.194-2.146,15.44-2.504c4.665-0.319,9.343-0.19,14.032,0.138c6.333,0.442,12.341,1.997,18.491,3.061
		c2.381,0.412,4.848,0.746,7.642,0.348c-1.935,1.798-2.23,3.96-3.184,5.911c-0.369,0.759-0.896,1.175-1.941,1.212
		c-2.82,0.101-5.633-0.017-8.426-0.271c-3.809-0.347-7.568-1.099-11.409-1.158c-3.053-0.047-6.122,0.088-8.923,1.294
		c-0.604,0.261-1.159,0.61-1.348,1.158c-0.172,0.51,0.019,0.823,0.748,0.452C245.646,109.359,245.84,109.705,246.16,109.748z"/>
	
		<linearGradient id="SVGID_3_" gradientUnits="userSpaceOnUse" x1="32.6421" y1="186.4395" x2="117.7388" y2="186.4395" gradientTransform="matrix(0.9986 0.0527 -0.0527 0.9986 8.1498 -8.3594)">
		<stop  offset="0" style="stop-color:#552700"/>
		<stop  offset="0.4201" style="stop-color:#844100"/>
		<stop  offset="0.6305" style="stop-color:#974B00"/>
	</linearGradient>
	<path fill="url(#SVGID_3_)" d="M33.235,165.539c2.386,1.099,4.951,1.451,7.692,1.527c4.549,0.127,8.856-0.667,13.179-1.652
		c4.746-1.08,9.232-2.786,14.03-3.727c0.995-0.193,1.996-0.372,3.105-0.581c0.015,2.447-0.243,4.767-1.52,6.948
		c-1.147,1.96-0.926,2.462,1.312,3.647c2.774,1.471,5.922,1.977,9.099,2.406c3.67,0.495,7.407,0.29,11.088,0.608
		c4.309,0.375,8.61,0.861,12.88,1.463c2.794,0.392,5.639,0.669,8.329,1.466c1.159,0.344,2.382,0.606,3.188,1.48
		c0.675,0.729,0.698,1.309-0.256,1.945c-2.277,1.518-4.994,2.196-7.765,2.729c-4.682,0.901-9.438,1.509-14.231,1.806
		c-4.055,0.254-8.131,0.276-12.195,0.435c-4.836,0.191-9.729-0.084-14.495,0.713c-5.442,0.908-10.458,2.592-13.337,6.802
		c-1.637,2.394-2.087,4.924-0.07,7.402c-0.01,0.396-0.25,0.369-0.566,0.203c-2.976-0.936-5.627-2.236-7.787-4.206
		c-1.414-1.286-1.738-2.752-1.524-4.334c0.423-3.131,2.692-5.334,5.638-7.215c3.786-2.412,8.082-4.051,12.442-5.617
		c1.228-0.441,2.373-0.997,3.369-1.753c0.681-0.519,0.95-1.215,0.826-1.836c-0.131-0.659-1.141-0.622-1.807-0.713
		c-2.856-0.395-5.672-0.014-8.491,0.358c-3.679,0.485-7.217,1.588-10.983,1.672c-4.31,0.099-8.568-0.029-12.365-2.03
		c-0.796-0.42-1.104-0.68-0.587-1.573c1.389-2.408,1.521-5.033,1.39-7.657C32.774,165.946,32.512,165.556,33.235,165.539z"/>
	<path fill="#A04608" d="M219.129,133.057c2.133-7.44-0.025-14.444-2.972-21.581c1.824,0.857,3.575,1.516,5.414,1.955
		c4.191,1.002,8.46,1.699,12.791,2.23c5.046,0.618,10.176,1.045,14.944,2.673c1.164,0.397,2.323,0.871,3.297,1.611
		c0.663,0.503,0.598,0.907,0.194,1.405c-1.483,1.827-3.249,3.435-5.506,4.666c-6.355,3.46-13.456,5.288-20.939,6.28
		C223.981,132.608,221.619,132.972,219.129,133.057z"/>
	<path fill="#552700" d="M52.797,150.473c-0.111,1.053-0.642,1.651-1.019,2.29c-1.979,3.358-3.565,6.798-3.353,10.611
		c0.008,0.145-0.066,0.311-0.001,0.432c0.68,1.278-0.216,1.452-1.506,1.607c-3.501,0.424-6.973,0.582-10.45-0.109
		c-0.923-0.183-1.794-0.478-2.575-0.877c-1.543-0.79-1.546-2.12-0.197-3.294c1.87-1.626,4.139-2.833,6.375-4.066
		c2.53-1.398,5.141-2.699,7.684-4.083C49.311,152.137,51.091,151.619,52.797,150.473z"/>
	<path fill="#552700" d="M69.908,191.219c2.529,0.52,4.489,3.583,3.874,5.8c-0.072,0.26-0.208,0.472-0.457,0.645
		c-4.817,3.382-10.362,4.705-16.619,3.644c-2.542-0.432-3.653-2.016-3.43-4.358c3.339,1.684,6.683,0.999,9.951-0.018
		C66.532,195.902,69.361,194.408,69.908,191.219z"/>
	<path fill="#2B0404" d="M46.658,152.303c0.526-3.001,0.243-5.696-1.519-8.286c2.705-0.417,5.316-0.435,7.781,0.508
		c2.411,0.924,2.695,2.506,0.902,4.113c-0.698,0.625-1.486,1.138-2.395,1.54C49.915,150.848,48.408,151.523,46.658,152.303z"/>
	<path fill="#3F0404" d="M264.776,93.644c5.999,1.422,11.813,2.583,16.86,5.402c-0.729,0.741-1.654,0.561-2.455,0.629
		c-3.776,0.317-7.467-0.027-11.083-0.977c-0.733-0.192-1.032-0.475-1.177-1.091C266.605,96.25,265.656,95.083,264.776,93.644z"/>
	<path fill="#4F0404" d="M286.323,129.134c3.063,0.051,5.769,0.391,8.318,1.361c0.197,0.076,0.587,0.132,0.469,0.419
		c-0.059,0.144-0.284,0.279-0.474,0.344c-1.776,0.611-3.661,0.815-5.566,0.914c-0.276,0.014-0.707,0.112-0.71-0.285
		C288.35,130.741,287.453,129.998,286.323,129.134z"/>
	<path fill="#452A2A" d="M223.005,162.891c1.54-0.614,2.855-0.777,4.141-1.014c3.611-0.667,7.223-1.328,10.545-2.729
		c0.158-0.067,0.333-0.107,0.497-0.158c0.251-0.082,0.556-0.197,0.739,0.016c0.258,0.301-0.124,0.461-0.348,0.597
		c-1.122,0.674-2.404,1.099-3.693,1.513C231.673,162.15,226.137,163.024,223.005,162.891z"/>
	<path fill="#442727" d="M85.563,161.055c-0.538,0.71-1.317,0.759-1.96,0.917c-2.913,0.71-5.633,1.778-8.36,2.841
		c-0.384,0.15-0.873,0.496-1.178,0.102c-0.321-0.416,0.298-0.62,0.649-0.798c2.767-1.404,5.709-2.49,8.889-3.125
		c0.383-0.076,0.798-0.057,1.199-0.056C85.009,160.936,85.216,160.999,85.563,161.055z"/>
	<path fill="#472C2C" d="M80.319,170.414c0.176,0.02,0.353,0.04,0.528,0.06c0.411,0.245,0.95,0.014,1.364,0.243
		c4.301,0.184,8.602,0.368,12.902,0.554c-0.743,0.721-1.648,0.683-2.495,0.699c-3.855,0.065-7.703,0.005-11.453-0.864
		c-0.211-0.049-0.402-0.15-0.603-0.229C80.393,170.75,80.136,170.658,80.319,170.414z"/>
	<path fill="#492E2E" d="M226.862,159.001c1.719-0.804,3.389-0.705,4.932-0.982c1.608-0.289,3.234-0.537,4.847-0.837
		c0.294-0.055,0.676-0.241,0.844,0.049c0.214,0.369-0.248,0.506-0.56,0.607c-2.086,0.697-4.304,0.967-6.515,1.238
		C229.338,159.209,228.242,159.466,226.862,159.001z"/>
	<path fill="#472C2C" d="M231.035,155.753c-0.42-0.128-1.171,0.152-1.221-0.382c-0.043-0.458,0.668-0.508,1.13-0.565
		c1.789-0.231,3.588-0.397,5.344-0.773c0.338-0.072,0.763-0.219,0.939,0.13c0.196,0.39-0.185,0.568-0.591,0.703
		C234.844,155.465,232.96,155.67,231.035,155.753z"/>
	<path fill="#513737" d="M75.91,161.682c-0.311,0.029-0.44-0.061-0.52-0.201c-0.107-0.19-0.028-0.378,0.142-0.496
		c0.947-0.647,2.041-1.028,3.285-1.085c0.143-0.006,0.344,0.092,0.43,0.189c0.129,0.146-0.044,0.286-0.178,0.362
		C78.075,161.023,76.928,161.335,75.91,161.682z"/>
	<path fill="#6C5656" d="M236.897,151.573c-0.168,0.484-0.652,0.564-1.147,0.553c-0.356-0.01-0.803-0.157-0.672-0.504
		c0.161-0.437,0.741-0.458,1.226-0.488C236.658,151.112,236.884,151.263,236.897,151.573z"/>
	<path fill="#664F4F" d="M77.662,158.004c-0.183,0.546-0.838,0.536-1.37,0.624c-0.37,0.06-0.388-0.24-0.333-0.447
		c0.154-0.576,0.775-0.644,1.334-0.686C77.578,157.473,77.718,157.716,77.662,158.004z"/>
	<path fill="#928282" d="M82.211,170.717c-0.485,0.033-0.973,0.072-1.364-0.243C81.333,170.441,81.806,170.454,82.211,170.717z"/>
	<path fill="#442727" d="M248.896,99.75c-9.317,0.056-18.521,0.598-27.293,3.438c0.679-0.906,1.809-1.256,2.891-1.569
		c7.458-2.159,15.146-2.984,23.047-2.485C248.03,99.166,248.53,99.181,248.896,99.75z"/>
	<path fill="#492E2E" d="M239.132,100.936c0.522,0.023,0.7,0.029,0.877,0.038c0.368,0.019,0.864,0.083,0.885,0.365
		c0.034,0.424-0.564,0.422-0.914,0.454c-1.991,0.178-3.985,0.323-5.98,0.447c-0.291,0.017-0.803,0.184-0.86-0.25
		c-0.042-0.304,0.378-0.343,0.67-0.422C235.65,101.076,237.566,101.026,239.132,100.936z"/>
	<path fill="#4D3232" d="M239.786,103.123c0.523,0.143,1.57-0.12,1.541,0.445c-0.03,0.561-1.056,0.422-1.695,0.458
		c-1.197,0.066-2.394,0.139-3.591,0.207c-0.38,0.021-0.961,0.18-1.057-0.158c-0.142-0.489,0.574-0.498,0.933-0.563
		C237.172,103.285,238.448,103.1,239.786,103.123z"/>
	<path fill="#452A2A" d="M41.24,174.647c5.605-0.364,11.236-0.533,16.874-2.362c-0.457,0.907-1.053,1.125-1.638,1.334
		c-2.857,1.022-5.875,1.469-8.975,1.515C45.417,175.164,43.305,175.4,41.24,174.647z"/>
	<path fill="#4B3030" d="M46.448,173.508c-0.089-0.001-0.524-0.014-0.59-0.351c-0.069-0.357,0.427-0.321,0.683-0.361
		c1.65-0.26,3.307-0.495,4.967-0.715c0.278-0.037,0.711-0.138,0.815,0.158c0.13,0.364-0.34,0.48-0.645,0.573
		C50.083,173.299,48.405,173.422,46.448,173.508z"/>
	<path fill="#452A2A" d="M49.732,171.327c-0.313-0.001-0.457-0.13-0.444-0.325c0.017-0.258,0.153-0.482,0.524-0.499
		c0.258-0.013,0.411,0.149,0.404,0.33C50.208,171.091,50.061,171.304,49.732,171.327z"/>
	<path fill="#472C2C" d="M222.753,116.412c4.641,0.9,9.391,1.238,14.147,1.546c-0.032,0.182-0.065,0.363-0.099,0.546
		c-5.209,0.298-10.296-0.169-15.181-1.894C221.857,116.016,222.339,116.337,222.753,116.412z"/>
	<path fill="#492E2E" d="M226.848,119.208c1.291,0.055,2.582,0.107,3.872,0.167c0.368,0.016,0.805,0.091,0.824,0.416
		c0.019,0.333-0.422,0.441-0.78,0.478c-2.072,0.21-4.095-0.071-6.102-0.445c-0.427-0.079-0.994-0.248-0.868-0.676
		c0.12-0.399,0.675-0.207,1.06-0.189c0.67,0.029,1.338,0.056,2.005,0.085C226.854,119.099,226.851,119.153,226.848,119.208z"/>
	<path fill="#553B3B" d="M226.107,121.148c0.514,0.02,0.678,0.16,0.623,0.421c-0.068,0.317-0.296,0.521-0.723,0.494
		c-0.245-0.015-0.419-0.145-0.369-0.354C225.709,121.426,225.842,121.157,226.107,121.148z"/>
	<path fill="#816E6E" d="M222.753,116.412c-0.363,0.117-0.824-0.128-1.132,0.199c-0.27-0.158-0.537-0.314-0.807-0.471
		c-0.023-0.209,0.069-0.31,0.343-0.246C221.58,116.291,222.309,116.063,222.753,116.412z"/>
</g>
</svg>
